<svg role="img" viewBox="0 0 24 24" xmlns="http://www.w3.org/2000/svg">
  <title>GitHub</title>
  <path d="M12 0C5.37 0 0 5.37 0 12c0 5.3 3.44 9.8 8.21 11.38.6.11.82-.26.82-.58 0-.29-.01-1.04-.02-2.05-3.34.73-4.04-1.61-4.04-1.61-.55-1.39-1.34-1.76-1.34-1.76-1.09-.75.08-.74.08-.74 1.2.09 1.83 1.23 1.83 1.23 1.07 1.83 2.8 1.3 3.49.99.11-.78.42-1.3.76-1.6-2.67-.3-5.47-1.33-5.47-5.93 0-1.31.47-2.38 1.24-3.22-.13-.3-.54-1.52.12-3.18 0 0 1.01-.32 3.3 1.23a11.5 11.5 0 0 1 3-.4c1.02 0 2.05.14 3 .4 2.28-1.55 3.29-1.23 3.29-1.23.66 1.66.25 2.88.12 3.18.77.84 1.24 1.91 1.24 3.22 0 4.61-2.81 5.62-5.49 5.92.43.37.81 1.1.81 2.22 0 1.6-.01 2.89-.01 3.28 0 .32.22.69.83.57C20.57 21.8 24 17.3 24 12c0-6.63-5.37-12-12-12z"/>
</svg>